<svg xmlns="http://www.w3.org/2000/svg" width="1024" height="1024" viewBox="0 0 1024 1024" role="img" aria-labelledby="title desc">
  <title id="title">Work4You favicon</title>
  <desc id="desc">Work4You black app icon with white W, green command prompt, and execution dust wave.</desc>
  <defs>
    <radialGradient id="surfaceGlow" cx="50%" cy="18%" r="72%">
      <stop offset="0%" stop-color="#2B2B2B"/>
      <stop offset="58%" stop-color="#151515"/>
      <stop offset="100%" stop-color="#050505"/>
    </radialGradient>
    <linearGradient id="plumeAlpha" x1="62" y1="0" x2="960" y2="0" gradientUnits="userSpaceOnUse">
      <stop offset="0%" stop-color="black"/>
      <stop offset="28%" stop-color="white" stop-opacity="0.1"/>
      <stop offset="52%" stop-color="white" stop-opacity="0.38"/>
      <stop offset="74%" stop-color="white" stop-opacity="0.74"/>
      <stop offset="100%" stop-color="white"/>
    </linearGradient>
    <linearGradient id="bottomAlpha" x1="62" y1="0" x2="960" y2="0" gradientUnits="userSpaceOnUse">
      <stop offset="0%" stop-color="black"/>
      <stop offset="22%" stop-color="white" stop-opacity="0.16"/>
      <stop offset="56%" stop-color="white" stop-opacity="0.52"/>
      <stop offset="100%" stop-color="white"/>
    </linearGradient>
    <pattern id="sharpDust" width="47" height="41" patternUnits="userSpaceOnUse">
      <rect x="3" y="32" width="2" height="2" fill="#FDFDFC" opacity="0.78"/>
      <rect x="9" y="37" width="4" height="2" fill="#FDFDFC" opacity="0.86"/>
      <rect x="17" y="29" width="2" height="3" fill="#FDFDFC" opacity="0.5"/>
      <rect x="24" y="35" width="5" height="4" rx="1" fill="#FDFDFC" opacity="0.7"/>
      <rect x="35" y="26" width="2" height="2" fill="#FDFDFC" opacity="0.44"/>
      <rect x="41" y="36" width="3" height="3" fill="#FDFDFC" opacity="0.82"/>
      <circle cx="13" cy="24" r="1.1" fill="#FDFDFC" opacity="0.48"/>
      <circle cx="33" cy="19" r="1.2" fill="#FDFDFC" opacity="0.36"/>
    </pattern>
    <pattern id="microDust" width="23" height="19" patternUnits="userSpaceOnUse">
      <rect x="1" y="15" width="1.4" height="1.4" fill="#FDFDFC" opacity="0.56"/>
      <rect x="6" y="10" width="1.5" height="1.5" fill="#FDFDFC" opacity="0.36"/>
      <rect x="12" y="16" width="1.7" height="1.7" fill="#FDFDFC" opacity="0.68"/>
      <rect x="19" y="12" width="1.2" height="1.2" fill="#FDFDFC" opacity="0.42"/>
    </pattern>
    <filter id="dustNoise" x="-5%" y="-5%" width="110%" height="110%" color-interpolation-filters="sRGB">
      <feTurbulence type="fractalNoise" baseFrequency="1.18" numOctaves="2" seed="14" result="noise"/>
      <feColorMatrix in="noise" type="matrix" values="0 0 0 0 1  0 0 0 0 1  0 0 0 0 1  0 0 0 3.8 -2.05" result="speckles"/>
    </filter>
    <mask id="kimiDustFade" maskUnits="userSpaceOnUse">
      <rect width="1024" height="1024" fill="black"/>
      <path fill="url(#plumeAlpha)" opacity="0.9" d="M72 858 C204 830 332 808 464 754 C596 700 674 642 746 584 C816 526 884 506 960 516 L960 944 L72 944 Z"/>
      <path fill="url(#bottomAlpha)" opacity="0.95" d="M58 888 C184 852 318 846 454 812 C594 778 700 724 802 684 C870 658 922 650 966 664 L966 944 L58 944 Z"/>
      <g fill="black" opacity="0.9">
        <rect x="184" y="864" width="32" height="5"/>
        <rect x="258" y="842" width="16" height="4"/>
        <rect x="334" y="818" width="42" height="6"/>
        <rect x="474" y="770" width="22" height="5"/>
        <rect x="558" y="724" width="36" height="7"/>
        <rect x="660" y="664" width="18" height="5"/>
        <rect x="746" y="606" width="46" height="7"/>
        <rect x="832" y="548" width="26" height="6"/>
        <rect x="902" y="620" width="38" height="8"/>
        <rect x="714" y="760" width="58" height="5"/>
        <rect x="522" y="842" width="48" height="4"/>
      </g>
      <g fill="black" opacity="0.62">
        <rect x="418" y="790" width="8" height="22"/>
        <rect x="616" y="698" width="6" height="18"/>
        <rect x="800" y="586" width="7" height="28"/>
        <rect x="878" y="666" width="8" height="20"/>
      </g>
    </mask>
    <filter id="promptGlow" x="-60%" y="-60%" width="220%" height="220%">
      <feGaussianBlur stdDeviation="13" result="blur"/>
      <feColorMatrix in="blur" type="matrix" values="0 0 0 0 0.12  0 0 0 0 0.86  0 0 0 0 0.43  0 0 0 0.88 0" result="greenGlow"/>
      <feMerge>
        <feMergeNode in="greenGlow"/>
        <feMergeNode in="SourceGraphic"/>
      </feMerge>
    </filter>
  </defs>

  <rect width="1024" height="1024" rx="224" fill="#050505"/>
  <rect width="1024" height="1024" rx="224" fill="url(#surfaceGlow)" opacity="0.76"/>
  <g mask="url(#kimiDustFade)">
    <rect x="58" y="510" width="920" height="438" fill="#FDFDFC" filter="url(#dustNoise)" opacity="0.9">
      <animateTransform attributeName="transform" type="translate" dur="10s" repeatCount="indefinite" values="-8 10; 18 -6; -8 10"/>
    </rect>
    <rect x="58" y="560" width="920" height="386" fill="url(#sharpDust)" opacity="0.62">
      <animateTransform attributeName="transform" type="translate" dur="7s" repeatCount="indefinite" values="12 -4; -12 8; 12 -4"/>
    </rect>
    <rect x="58" y="660" width="920" height="286" fill="url(#microDust)" opacity="0.8">
      <animateTransform attributeName="transform" type="translate" dur="5s" repeatCount="indefinite" values="-6 3; 7 -5; -6 3"/>
    </rect>
  </g>
  <g opacity="0.78">
    <rect x="118" y="878" width="3" height="3" fill="#FDFDFC" opacity="0.22"/>
    <rect x="178" y="852" width="3" height="3" fill="#FDFDFC" opacity="0.28"/>
    <rect x="236" y="834" width="4" height="4" fill="#FDFDFC" opacity="0.32"/>
    <rect x="314" y="812" width="3" height="3" fill="#FDFDFC" opacity="0.38"/>
    <rect x="398" y="786" width="4" height="4" fill="#FDFDFC" opacity="0.46"/>
    <rect x="520" y="754" width="3" height="3" fill="#FDFDFC" opacity="0.48"/>
    <rect x="636" y="706" width="4" height="4" fill="#FDFDFC" opacity="0.58"/>
    <rect x="706" y="642" width="5" height="5" fill="#FDFDFC" opacity="0.64"/>
    <rect x="762" y="592" width="3" height="3" fill="#FDFDFC" opacity="0.52"/>
    <rect x="824" y="548" width="4" height="4" fill="#FDFDFC" opacity="0.58"/>
    <rect x="888" y="532" width="3" height="3" fill="#FDFDFC" opacity="0.5"/>
    <rect x="934" y="614" width="4" height="4" fill="#FDFDFC" opacity="0.62"/>
    <animateTransform attributeName="transform" type="translate" dur="9s" repeatCount="indefinite" values="-4 5; 12 -8; -4 5"/>
  </g>

  <path d="M246 250 L368 718 L512 384 L656 718 L744 250" fill="none" stroke="#FDFDFC" stroke-width="88" stroke-linecap="round" stroke-linejoin="round"/>
  <path d="M270 770 C390 872 634 872 754 770" fill="none" stroke="#FDFDFC" stroke-width="58" stroke-linecap="round" stroke-opacity="0.86"/>
  <path d="M858 262 L902 306 L858 350" fill="none" stroke="#36D66E" stroke-width="30" stroke-linecap="round" stroke-linejoin="round" filter="url(#promptGlow)"/>
</svg>
